# xmcd
#
# Track frame offsets:
#	150
#	19284
#	33000
#	46948
#	61308
#	73335
#	84065
#	95063
#	109023
#	127679
#	141020
#	151459
#	162579
#	176091
#
# Disc length: 2531 seconds
#
# Revision: 1
# Processed by: cddbd v1.4PL0 Copyright (c) Steve Scherf et al.
# Submitted via: audiograbber 1.81.03
#
DISCID=b409e10e
DTITLE=Ella Fritzgerald - hits
DYEAR=1900
DGENRE=
TTITLE0=Mack the Knife
TTITLE1=Smooth Sailing
TTITLE2=You'll never know
TTITLE3=How high the moon
TTITLE4=Baby, it's cold out side
TTITLE5=Goody, goody
TTITLE6=Flying home
TTITLE7=Oh! Lady be good
TTITLE8=Body And Soul
TTITLE9=Cow cow boogie
TTITLE10=I can't give you anything but love
TTITLE11=That old black magic
TTITLE12=You'll have to swing it
TTITLE13=I can't get started 
EXTD=
EXTT0=
EXTT1=
EXTT2=
EXTT3=
EXTT4=
EXTT5=
EXTT6=
EXTT7=
EXTT8=
EXTT9=
EXTT10=
EXTT11=
EXTT12=
EXTT13=
PLAYORDER=
